<?xml version="1.0" encoding="UTF-8"?><svg xmlns="http://www.w3.org/2000/svg" xmlns:xlink="http://www.w3.org/1999/xlink" viewBox="0 0 95 95"><defs><style>.f,.g{fill:none;}.h{fill:#00471e;}.i{fill:#ffa379;}.j{fill:#fdf7f0;}.k{fill:#ff6629;}.l{fill:#9fceb0;}.m{fill:#e054ad;}.n{fill:#d62900;}.o{fill:#2a8556;}.g{clip-path:url(#e);}.p{clip-path:url(#d);}</style><clipPath id="e"><circle cx="47.5" cy="47.5" r="47.5" style="fill:#fdf7f0;"/></clipPath><clipPath id="d"><circle cx="47.5" cy="47.5" r="47.5" style="clip-path:url(#e); fill:none;"/></clipPath></defs><g id="a"/><g id="b"><g id="c"><g><circle cx="47.5" cy="47.5" r="47.5" style="fill:#fdf7f0;"/><g style="clip-path:url(#d);"><g><path d="M36.506,40.758c.402-.245,.765-.507,1.098-.767-.333,.26-.696,.522-1.098,.767Z" style="fill:none;"/><path d="M39.689,38.392c.121-.064,.241-.114,.361-.15-.119,.036-.239,.087-.361,.15Z" style="fill:none;"/><path d="M37.603,39.991c.166-.13,.326-.259,.478-.385-.153,.126-.312,.255-.478,.385Z" style="fill:none;"/><path d="M38.522,39.239c.212-.176,.413-.341,.606-.485-.193,.144-.394,.308-.606,.485Z" style="fill:none;"/><path d="M40.05,38.241c.119-.036,.239-.057,.358-.06-.12,.003-.239,.024-.358,.06Z" style="fill:none;"/><path d="M32.61,41.987c.492-.032,.95-.1,1.376-.196-.426,.096-.883,.164-1.376,.196-.164,.011-.327,.012-.489,.006,.162,.007,.326,.005,.489-.006Z" style="fill:none;"/><path d="M54.168,44.478c-.129-.159-.259-.325-.389-.499,.13,.174,.261,.34,.389,.499Z" style="fill:none;"/><path d="M52.104,48.484c.329-.01,.644-.025,.942-.045-.297,.02-.613,.035-.942,.045Z" style="fill:none;"/><path d="M55.062,45.562c-.105-.132-.217-.268-.335-.41,.118,.141,.23,.277,.335,.41Z" style="fill:none;"/><path d="M53.393,43.432c-.126-.191-.25-.392-.368-.603,.118,.211,.242,.411,.368,.603Z" style="fill:none;"/><path d="M54.727,45.152c-.118-.141-.241-.288-.367-.44,.126,.153,.25,.299,.367,.44Z" style="fill:none;"/><path d="M55.788,47.037c-.004-.12-.025-.239-.061-.358,.036,.119,.057,.238,.061,.358Z" style="fill:none;"/><path d="M55.727,46.678c-.036-.119-.087-.239-.151-.361,.064,.121,.115,.241,.151,.361Z" style="fill:none;"/><path d="M53.826,35.261c-.45,.356-.816,.753-1.101,1.18,.285-.426,.652-.824,1.101-1.18Z" style="fill:none;"/><polygon points="59.667 27.221 66.269 27.323 69.833 42.616 67.105 42.764 69.833 42.616 66.269 27.323 59.667 27.221 59.695 24.194 55.938 24.192 59.695 24.194 59.667 27.221" style="fill:none;"/><rect x="48.896" y="20.143" height="13.825" style="fill:none;"/><path d="M39.437,30.807c-.085-.003-.172-.01-.259-.021,.087,.011,.173,.018,.259,.021Z" style="fill:none;"/><path d="M38.914,30.743c-.355-.071-.724-.195-1.107-.351,.383,.155,.752,.28,1.107,.351Z" style="fill:none;"/><path d="M35.872,41.111c.222-.112,.432-.231,.633-.353-.201,.123-.412,.241-.633,.353Z" style="fill:none;"/><path d="M32.937,28.517c-.241-.037-.485-.06-.732-.067,.247,.007,.491,.031,.732,.067Z" style="fill:none;"/><path d="M33.985,41.791c.284-.064,.554-.141,.811-.228-.257,.087-.527,.164-.811,.228Z" style="fill:none;"/><path d="M37.807,30.393c-.191-.078-.386-.163-.585-.253,.198,.09,.393,.176,.585,.253Z" style="fill:none;"/><path d="M35.672,29.412c-.215-.098-.433-.193-.655-.284,.222,.091,.44,.186,.655,.284Z" style="fill:none;"/><path d="M36.617,29.856c-.205-.098-.413-.197-.625-.296,.212,.099,.42,.199,.625,.296Z" style="fill:none;"/><path d="M49.988,61.87c-1.625,.502-2.846,1.76-4.303,2.071-4.037,.861-3.971-3.519-3.971-3.519l.473-12.306-12.268-.791s-4.377-.175-3.617,3.882c.274,1.465,1.501,2.717,1.963,4.354,.702,2.489-.004,4.871-3.224,5.371l-.133,6.726,30.527,.625c.082-.456,.131-.966,.14-1.537,.078-4.754-2.71-5.765-5.586-4.875Z" style="fill:#9fceb0;"/><path d="M69.833,42.616l-3.563-15.294-6.603-.102,.029-3.027-3.757-.003-.131,2.97h0l-13.823-.213c-.02,.373-.051,.727-.096,1.056-.111,.823-.302,1.491-.6,1.921-.06,.086-.124,.163-.192,.229-.145,.141-.294,.257-.447,.349-.153,.092-.309,.161-.469,.21-.08,.024-.161,.044-.243,.058-.163,.029-.331,.039-.501,.033-.085-.003-.171-.01-.259-.021s-.175-.025-.264-.043c-.355-.071-.724-.195-1.107-.351-.191-.078-.386-.163-.585-.253-.198-.09-.4-.186-.605-.283s-.413-.197-.625-.296c-.106-.05-.212-.099-.32-.148-.215-.098-.433-.193-.655-.284-.665-.272-1.359-.501-2.081-.611-.241-.037-.485-.06-.732-.067-.247-.007-.497,.001-.75,.029-.76,.082-1.404,.263-1.948,.526-.363,.175-.68,.386-.957,.628-.415,.363-.739,.796-.985,1.282-.246,.486-.415,1.024-.519,1.599-.07,.383-.111,.782-.129,1.191-.026,.614,.003,1.253,.072,1.898,.091,.847,.253,1.606,.474,2.28,.369,1.124,.9,2.011,1.536,2.669,.763,.79,1.677,1.25,2.638,1.396,.16,.024,.322,.04,.484,.046,.162,.007,.326,.005,.489-.006,.492-.032,.95-.1,1.376-.196,.284-.064,.554-.141,.811-.228,.386-.13,.743-.284,1.076-.451,.222-.112,.432-.231,.633-.353,.402-.245,.765-.507,1.098-.767,.166-.13,.325-.259,.478-.385,.153-.126,.299-.249,.441-.367,.212-.176,.413-.341,.606-.485s.379-.268,.561-.363c.121-.064,.241-.114,.361-.15,.119-.036,.239-.057,.358-.06,.24-.007,.483,.056,.738,.207,1.331,.79,1.431,6.001,1.088,9.689,.139,.01,.31,.022,.509,.037s.424,.031,.673,.049c.373,.027,.798,.057,1.26,.088,.154,.01,.312,.021,.474,.031,.485,.031,1.003,.062,1.539,.09,.179,.009,.359,.019,.541,.027,.364,.018,.734,.034,1.105,.048,1.3,.049,2.617,.071,3.769,.036,.329-.01,.644-.025,.942-.045,1.338-.091,2.315-.29,2.536-.664,.151-.256,.214-.498,.206-.738-.004-.12-.025-.239-.061-.358-.036-.119-.087-.239-.151-.361-.127-.243-.305-.492-.514-.756-.105-.132-.217-.268-.335-.41s-.241-.288-.367-.44c-.063-.076-.127-.154-.191-.234-.129-.159-.259-.325-.389-.499s-.259-.356-.386-.547c-.126-.191-.25-.392-.368-.603-.532-.949-.955-2.109-1.052-3.586-.064-.982,.182-1.95,.752-2.802,.285-.426,.652-.824,1.101-1.18,1.049-.83,2.549-1.434,4.524-1.648,.43-.047,.858-.075,1.277-.082,2.933-.045,5.463,.995,5.852,4.54,.097,.886-.036,1.735-.28,2.544-.139,.463-.315,.912-.504,1.349-.142,.328-.292,.648-.44,.96-.099,.208-.197,.414-.291,.615-.094,.202-.185,.4-.27,.595-.127,.292-.239,.577-.328,.854-.089,.277-.154,.546-.185,.807-.021,.174-.028,.345-.017,.512,.033,.501,.224,.97,.649,1.406,.066,.068,.142,.131,.227,.19,.34,.236,.83,.404,1.427,.518,.448,.086,.956,.141,1.507,.172l.131-5.83,2.727-.148Z" style="fill:#ff6629;"/><polygon points="55.938 24.192 55.808 27.162 55.808 27.162 55.938 24.192" style="fill:#d62900;"/><path d="M102.272,44.111c-6.543,.997-29.691,4.51-35.298,4.484l-.448,19.914-11.091-.227c-.579,3.209-2.835,3.682-4.962,3.113-1.942-.519-3.879-2.033-4.826-2.242-1.428-.315-3.325,.317-3.341,3.027-.013,2.194-.48,25.033-.689,27.071l59.368-.551,1.287-54.59Z" style="fill:#00471e;"/><path d="M64.04,47.904c-.085-.059-.161-.122-.227-.19-.425-.436-.616-.905-.649-1.406-.011-.167-.005-.338,.017-.512,.032-.261,.097-.53,.185-.807,.089-.277,.201-.562,.328-.854,.084-.195,.175-.393,.27-.595s.192-.407,.291-.615c.148-.313,.298-.633,.44-.96,.189-.437,.365-.887,.504-1.349,.244-.81,.377-1.658,.28-2.544-.389-3.544-2.919-4.585-5.852-4.54-.419,.006-.846,.035-1.277,.082-1.975,.214-3.475,.817-4.524,1.648-.45,.356-.816,.753-1.101,1.18-.571,.853-.817,1.821-.752,2.802,.097,1.477,.521,2.637,1.052,3.586,.118,.211,.242,.411,.368,.603,.127,.191,.256,.373,.386,.547s.261,.34,.389,.499c.064,.08,.128,.157,.191,.234,.126,.153,.25,.299,.367,.44s.23,.277,.335,.41c.209,.265,.387,.513,.514,.756,.064,.121,.115,.241,.151,.361,.036,.119,.057,.238,.061,.358,.007,.24-.055,.483-.206,.738-.221,.374-1.197,.573-2.536,.664-.297,.02-.613,.035-.942,.045-1.151,.035-2.469,.013-3.769-.036-.371-.014-.741-.03-1.105-.048-.182-.009-.363-.018-.541-.027-.536-.028-1.054-.059-1.539-.09-.162-.01-.32-.021-.474-.031-.462-.031-.887-.061-1.26-.088-.249-.018-.474-.035-.673-.049s-.369-.027-.509-.037l-.004,.042-.043-.003-.473,12.306s-.066,4.38,3.971,3.519c1.457-.311,2.678-1.569,4.303-2.071,2.876-.889,5.664,.121,5.586,4.875-.009,.571-.058,1.081-.14,1.537l11.091,.227,.448-19.914c-.551-.031-1.059-.086-1.507-.172-.597-.114-1.086-.283-1.427-.518Z" style="fill:#2a8556;"/><path d="M103.183-4.378l-62.459,.104c.82,13.807,1.428,28.086,1.26,31.223l13.823,.213,.131-2.97,3.757,.003-.029,3.027,6.603,.102,3.563,15.294-2.727,.148-.131,5.83c5.607,.026,26.558-2.948,33.101-3.945,1.012-.154,1.682-.262,1.895-.303l1.214-48.724Z" style="fill:#e054ad;"/><path d="M28.265,55.56c-.461-1.637-1.688-2.889-1.963-4.354-.76-4.057,3.617-3.882,3.617-3.882l12.268,.791,.002-.042,.045,.003c.343-3.688,.243-8.899-1.088-9.689-.255-.152-.498-.214-.738-.207-.12,.003-.239,.024-.358,.06-.119,.036-.239,.087-.361,.15-.182,.095-.368,.219-.561,.363s-.394,.308-.606,.485c-.141,.118-.288,.241-.441,.367s-.312,.255-.478,.385c-.333,.26-.696,.522-1.098,.767-.201,.123-.412,.241-.633,.353-.333,.168-.69,.321-1.076,.451-.257,.087-.527,.164-.811,.228-.426,.096-.883,.164-1.376,.196-.164,.011-.327,.012-.489,.006-.162-.007-.324-.022-.484-.046-.961-.145-1.875-.606-2.638-1.396-.636-.658-1.168-1.545-1.536-2.669-.221-.674-.383-1.434-.474-2.28-.069-.646-.098-1.284-.072-1.898,.017-.409,.059-.808,.129-1.191,.105-.574,.273-1.113,.519-1.599,.246-.486,.57-.919,.985-1.282,.277-.242,.595-.453,.957-.628,.544-.262,1.189-.443,1.948-.526,.253-.027,.503-.036,.75-.029,.247,.007,.491,.031,.732,.067,.722,.11,1.416,.339,2.081,.611,.222,.091,.44,.186,.655,.284,.107,.049,.214,.098,.32,.148,.212,.099,.42,.199,.625,.296s.407,.193,.605,.283c.198,.09,.393,.176,.585,.253,.383,.155,.752,.28,1.107,.351,.089,.018,.177,.032,.264,.043,.087,.011,.173,.018,.259,.021,.171,.006,.338-.004,.501-.033,.082-.015,.163-.034,.243-.058,.16-.049,.316-.118,.469-.21,.153-.092,.302-.208,.447-.349,.068-.066,.132-.143,.192-.229,.298-.431,.49-1.099,.6-1.921,.044-.329,.076-.683,.096-1.056h0l-16.028-.247-3.855,15.712,3.303,.204-.363,18.312c3.22-.5,3.926-2.883,3.224-5.371Z" style="fill:#ffa379;"/><path d="M41.888,28.005c-.111,.823-.302,1.491-.6,1.921,.298-.431,.49-1.099,.6-1.921Z" style="fill:#ff6629;"/><path d="M40.649,30.505c-.153,.092-.309,.161-.469,.21,.16-.049,.316-.118,.469-.21Z" style="fill:#ff6629;"/><path d="M39.938,30.774c-.163,.029-.331,.039-.501,.033,.171,.006,.338-.004,.501-.033Z" style="fill:#ff6629;"/><path d="M29.507,29.004c-.363,.175-.68,.386-.957,.628,.277-.242,.595-.453,.957-.628Z" style="fill:#ff6629;"/><path d="M41.888,28.005c.044-.329,.076-.683,.096-1.056h0c-.02,.373-.051,.727-.096,1.056Z" style="fill:#ff6629;"/><path d="M27.462,37.881c.369,1.124,.9,2.011,1.536,2.669-.636-.658-1.168-1.545-1.536-2.669Z" style="fill:#ff6629;"/><path d="M28.55,29.631c-.415,.363-.739,.796-.985,1.282,.246-.486,.57-.919,.985-1.282Z" style="fill:#ff6629;"/><path d="M32.121,41.992c-.162-.007-.324-.022-.484-.046,.16,.024,.322,.04,.484,.046Z" style="fill:#ff6629;"/><path d="M27.045,32.512c-.07,.383-.111,.782-.129,1.191,.017-.409,.059-.808,.129-1.191Z" style="fill:#ff6629;"/><path d="M27.564,30.913c-.246,.486-.415,1.024-.519,1.599,.105-.574,.273-1.113,.519-1.599Z" style="fill:#ff6629;"/><path d="M42.188,48.116l.043,.003,.004-.042-.045-.003-.002,.042Z" style="fill:#d62900;"/></g></g></g></g></g></svg>