<?xml version="1.0" encoding="UTF-8"?><svg xmlns="http://www.w3.org/2000/svg" xmlns:xlink="http://www.w3.org/1999/xlink" viewBox="0 0 95 95"><defs><style>.f{fill:#00471e;}.g{fill:#ffe600;}.h{fill:#fbe4e4;}.i{fill:#fdf7f0;}.j{fill:#b00000;}.k{clip-path:url(#e);fill:none;}.l{fill:#2aca56;}.l,.m,.n,.o{fill-rule:evenodd;}.m{fill:#2a8556;}.n{fill:#e054ad;}.o{fill:#ff6629;}.p{clip-path:url(#d);}</style><clipPath id="e"><circle cx="47.5" cy="47.5" r="47.5" style="fill:#fdf7f0;"/></clipPath><clipPath id="d"><circle cx="47.5" cy="47.5" r="47.5" style="clip-path:url(#e); fill:none;"/></clipPath></defs><g id="a"/><g id="b"><g id="c"><g><circle cx="47.5" cy="47.5" r="47.5" style="fill:#fdf7f0;"/><g style="clip-path:url(#d);"><g><path d="M75.101,31.08c3.262-.163,5.61,1.122,5.814,4.998,.204,3.876,0,20.402-.204,23.36s-2.04,4.386-5.406,4.08c-3.366-.306-17.035-.306-17.035-.306l-10.318,3.94s.731-27.301,.731-29.953c0-2.652,1.085-6.032,4.691-6.12,4.182-.102,19.688,.102,21.728,0Z" style="fill:#2a8556; fill-rule:evenodd;"/><path d="M50.139,45.166c.31-2.317,5.671-6.709,9.589-7.079,2.251-.212,4.163,.783,5.282,.693s2.25-1.206,5.467-.484c3.979,.894,8.702,5.417,8.926,6.755,.477,2.852-6.373,12.051-14.475,12.111-8.602,.064-15.168-9.161-14.789-11.996Z" style="fill:#2aca56; fill-rule:evenodd;"/><g><path d="M49.556,46.264c-.449,1.498,.274,2.712,1.629,3.118,1.353,.408,2.991-.225,3.363-1.723,.37-1.497-.319-2.659-1.632-3.05-1.306-.388-2.847-.06-3.36,1.654Z" style="fill:#00471e;"/><path d="M55.262,46.312c-.449,1.498,.274,2.712,1.629,3.118,1.353,.408,2.991-.225,3.363-1.723,.37-1.497-.319-2.659-1.632-3.05-1.306-.388-2.847-.06-3.36,1.654Z" style="fill:#00471e;"/><path d="M61.36,46.189c-.654,2.183,.399,3.951,2.374,4.543,1.971,.595,4.357-.328,4.899-2.51,.54-2.182-.465-3.875-2.377-4.443-1.903-.565-4.147-.087-4.896,2.41Z" style="fill:#ffe600;"/></g><path d="M19.417,31.08c-3.262-.163-5.61,1.122-5.814,4.998-.204,3.876,0,20.402,.204,23.36s2.04,4.386,5.406,4.08c3.366-.306,17.035-.306,17.035-.306l10.318,3.94s-.731-27.301-.731-29.953-1.085-6.032-4.691-6.12c-4.182-.102-19.688,.102-21.728,0Z" style="fill:#e054ad; fill-rule:evenodd;"/><path d="M30.296,57.463c-8.1,.17-15.21-8.829-14.814-11.694,.185-1.343,4.777-5.999,8.73-7.006,3.196-.814,4.357,.271,5.479,.328s3.005-.992,5.26-.843c3.927,.258,9.411,4.496,9.787,6.803,.46,2.823-5.841,12.231-14.441,12.412Z" style="fill:#ff6629; fill-rule:evenodd;"/><g><path d="M45.472,45.899c.449,1.498-.274,2.712-1.629,3.118-1.353,.408-2.991-.225-3.363-1.723-.37-1.497,.319-2.659,1.632-3.05,1.306-.388,2.847-.06,3.36,1.654Z" style="fill:#fbe4e4;"/><path d="M39.687,46.203c.449,1.498-.274,2.712-1.629,3.118-1.353,.408-2.991-.225-3.363-1.723-.37-1.497,.319-2.659,1.632-3.05,1.306-.388,2.847-.06,3.36,1.654Z" style="fill:#fbe4e4;"/><path d="M33.536,46.385c.651,2.174-.398,3.935-2.364,4.524-1.963,.592-4.339-.326-4.879-2.499-.538-2.173,.463-3.858,2.367-4.425,1.895-.563,4.13-.086,4.875,2.4Z" style="fill:#b00000;"/></g></g></g></g></g></g></svg>