<?xml version="1.0" encoding="UTF-8"?><svg xmlns="http://www.w3.org/2000/svg" xmlns:xlink="http://www.w3.org/1999/xlink" viewBox="0 0 95 95"><defs><style>.h,.i{fill:none;}.j{fill:#00471e;}.k{fill:#ffdf1b;}.l{fill:#fef7f7;}.m{fill:#fdf7f0;}.n{fill:#c0a685;}.o{fill:#431f34;}.p{fill:#2aca56;}.q{fill:#5a2a45;}.i{clip-path:url(#e);}.r{clip-path:url(#f);}.s{clip-path:url(#d);}.t{clip-path:url(#g);}</style><clipPath id="e"><circle cx="47.5" cy="47.5" r="47.5" style="fill:#fdf7f0;"/></clipPath><clipPath id="d"><circle cx="47.5" cy="47.5" r="47.5" style="clip-path:url(#e); fill:none;"/></clipPath><clipPath id="f"><rect x="-5.936" y="9.795" width="119.872" height="100.362" transform="translate(-14.22 16.858) rotate(-15.707)" style="fill:none;"/></clipPath><clipPath id="g"><polygon points="20.625 31.096 23.708 42.946 34.432 39.717 31.14 28.193 20.625 31.096" style="fill:#2aca56;"/></clipPath></defs><g id="a"/><g id="b"><g id="c"><g><circle cx="47.5" cy="47.5" r="47.5" style="fill:#fdf7f0;"/><g style="clip-path:url(#d);"><g style="clip-path:url(#f);"><path d="M12.718,26.933s3.548,12.05,5.772,21.653c2.224,9.602,6.986,29.79,6.986,29.79l39.082-9.637s-3.818-12.2-7.316-25.947c-3.524-13.85-6.477-26.113-6.477-26.113L12.718,26.933Z" style="fill:#ffdf1b;"/><polygon points="28.637 68.368 29.503 71.091 54.371 64.767 53.469 61.833 28.637 68.368" style="fill:#fef7f7;"/><polygon points="26.87 61.548 27.736 64.27 52.604 57.946 51.703 55.013 26.87 61.548" style="fill:#fef7f7;"/><polygon points="24.793 54.507 25.659 57.23 50.527 50.906 49.626 47.972 24.793 54.507" style="fill:#fef7f7;"/><polygon points="23.352 47.718 24.218 50.44 49.086 44.116 48.184 41.183 23.352 47.718" style="fill:#fef7f7;"/><g><polygon points="20.625 31.096 23.708 42.946 34.432 39.717 31.14 28.193 20.625 31.096" style="fill:#2aca56;"/><g style="clip-path:url(#g);"><path d="M32.979,37.36c-.244-.916-.536-1.067-1.266-2.33-.826-1.429-.543-2.124-1.783-3.166-1.18-.992-3.139-.531-4.88,.28-1.667,.776-2.223,.938-2.034,1.8,.06,.274,.245,.429,.303,.559,.076,.167,.077,.695,.098,.896,.064,.605,.325,.785,.346,.944,.054,.41-.55,1.183-.579,1.472-.015,.147,.052,.224,.149,.283,.105,.063,.357,.061,.466,.111,.13,.059,.123,.177,.128,.264,.003,.064-.011,.144-.016,.189s-.062,.109,.029,.232c.085,.115,.252,.083,.281,.149,.034,.077-.069,.112,.011,.312,.046,.114,.161,.104,.232,.146s.151,.119,.183,.238c.069,.258,.036,.759,.397,.8,.607,.068,1.717-.888,2.22-.565,.12,.077,.526,.86,.917,1.656,.426,.868,1.16,1.618,1.16,1.618l3.87-1.264s-1.617-2.042-1.367-2.552c.211-.429,1.494-.726,1.136-2.072Z" style="fill:#00471e;"/></g></g><g><path d="M29.897,61.828c-.112,.086-.186,.221-.201,.37-.015,.146,.045,.252,.097,.315,.088,.105,.222,.173,.36,.182,.211,.015,.461-.155,.483-.421,.029-.345-.193-.504-.391-.535-.124-.02-.248,.012-.348,.089Z" style="fill:#5a2a45;"/><path d="M31.656,61.349c-.112,.086-.186,.221-.201,.37-.015,.146,.045,.252,.097,.315,.088,.105,.222,.173,.36,.182,.211,.015,.461-.155,.483-.421,.029-.345-.193-.504-.391-.535-.124-.02-.248,.012-.348,.089Z" style="fill:#5a2a45;"/><path d="M33.414,60.869c-.112,.086-.186,.221-.201,.37-.015,.146,.045,.252,.097,.315,.088,.105,.222,.173,.36,.182,.211,.015,.461-.155,.483-.421,.029-.345-.193-.504-.391-.535-.124-.02-.248,.012-.348,.089Z" style="fill:#5a2a45;"/><path d="M35.173,60.389c-.112,.086-.186,.221-.201,.37-.015,.146,.045,.252,.097,.315,.088,.105,.222,.173,.36,.182,.211,.015,.461-.155,.483-.421,.029-.345-.193-.504-.391-.535-.124-.02-.248,.012-.348,.089Z" style="fill:#5a2a45;"/><path d="M36.932,59.91c-.112,.086-.186,.221-.201,.37-.015,.146,.045,.252,.097,.315,.088,.105,.222,.173,.36,.182,.211,.015,.461-.155,.483-.421,.029-.345-.193-.504-.391-.535-.124-.02-.248,.012-.348,.089Z" style="fill:#5a2a45;"/><path d="M38.691,59.43c-.112,.086-.186,.221-.201,.37-.015,.146,.045,.252,.097,.315,.088,.105,.222,.173,.36,.182,.211,.015,.461-.155,.483-.421,.029-.345-.193-.504-.391-.535-.124-.02-.248,.012-.348,.089Z" style="fill:#5a2a45;"/><path d="M40.449,58.95c-.112,.086-.186,.221-.201,.37-.015,.146,.045,.252,.097,.315,.088,.105,.222,.173,.36,.182,.211,.015,.461-.155,.483-.421,.029-.345-.193-.504-.391-.535-.124-.02-.248,.012-.348,.089Z" style="fill:#5a2a45;"/><path d="M42.208,58.471c-.112,.086-.186,.221-.201,.37-.015,.146,.045,.252,.097,.315,.088,.105,.222,.173,.36,.182,.211,.015,.461-.155,.483-.421,.029-.345-.193-.504-.391-.535-.124-.02-.248,.012-.348,.089Z" style="fill:#5a2a45;"/><path d="M43.967,57.991c-.112,.086-.186,.221-.201,.37-.015,.146,.045,.252,.097,.315,.088,.105,.222,.173,.36,.182,.211,.015,.461-.155,.483-.421,.029-.345-.193-.504-.391-.535-.124-.02-.248,.012-.348,.089Z" style="fill:#5a2a45;"/></g><g><path d="M27.745,54.908c-.112,.086-.186,.221-.201,.37-.015,.146,.045,.252,.097,.315,.088,.105,.222,.173,.36,.182,.211,.015,.461-.155,.483-.421,.029-.345-.193-.504-.391-.535-.124-.02-.248,.012-.348,.089Z" style="fill:#5a2a45;"/><path d="M29.503,54.428c-.112,.086-.186,.221-.201,.37-.015,.146,.045,.252,.097,.315,.088,.105,.222,.173,.36,.182,.211,.015,.461-.155,.483-.421,.029-.345-.193-.504-.391-.535-.124-.02-.248,.012-.348,.089Z" style="fill:#5a2a45;"/><path d="M31.262,53.949c-.112,.086-.186,.221-.201,.37-.015,.146,.045,.252,.097,.315,.088,.105,.222,.173,.36,.182,.211,.015,.461-.155,.483-.421,.029-.345-.193-.504-.391-.535-.124-.02-.248,.012-.348,.089Z" style="fill:#5a2a45;"/><path d="M33.021,53.469c-.112,.086-.186,.221-.201,.37-.015,.146,.045,.252,.097,.315,.088,.105,.222,.173,.36,.182,.211,.015,.461-.155,.483-.421,.029-.345-.193-.504-.391-.535-.124-.02-.248,.012-.348,.089Z" style="fill:#5a2a45;"/><path d="M34.78,52.989c-.112,.086-.186,.221-.201,.37-.015,.146,.045,.252,.097,.315,.088,.105,.222,.173,.36,.182,.211,.015,.461-.155,.483-.421,.029-.345-.193-.504-.391-.535-.124-.02-.248,.012-.348,.089Z" style="fill:#5a2a45;"/><path d="M36.538,52.51c-.112,.086-.186,.221-.201,.37-.015,.146,.045,.252,.097,.315,.088,.105,.222,.173,.36,.182,.211,.015,.461-.155,.483-.421,.029-.345-.193-.504-.391-.535-.124-.02-.248,.012-.348,.089Z" style="fill:#5a2a45;"/><path d="M38.297,52.03c-.112,.086-.186,.221-.201,.37-.015,.146,.045,.252,.097,.315,.088,.105,.222,.173,.36,.182,.211,.015,.461-.155,.483-.421,.029-.345-.193-.504-.391-.535-.124-.02-.248,.012-.348,.089Z" style="fill:#5a2a45;"/><path d="M40.056,51.551c-.112,.086-.186,.221-.201,.37-.015,.146,.045,.252,.097,.315,.088,.105,.222,.173,.36,.182,.211,.015,.461-.155,.483-.421,.029-.345-.193-.504-.391-.535-.124-.02-.248,.012-.348,.089Z" style="fill:#5a2a45;"/><path d="M41.814,51.071c-.112,.086-.186,.221-.201,.37-.015,.146,.045,.252,.097,.315,.088,.105,.222,.173,.36,.182,.211,.015,.461-.155,.483-.421,.029-.345-.193-.504-.391-.535-.124-.02-.248,.012-.348,.089Z" style="fill:#5a2a45;"/></g><g><path d="M26.795,48.266c-.112,.086-.186,.221-.201,.37-.015,.146,.045,.252,.097,.315,.088,.105,.222,.173,.36,.182,.211,.015,.461-.155,.483-.421,.029-.345-.193-.504-.391-.535-.124-.02-.248,.012-.348,.089Z" style="fill:#5a2a45;"/><path d="M28.554,47.786c-.112,.086-.186,.221-.201,.37-.015,.146,.045,.252,.097,.315,.088,.105,.222,.173,.36,.182,.211,.015,.461-.155,.483-.421,.029-.345-.193-.504-.391-.535-.124-.02-.248,.012-.348,.089Z" style="fill:#5a2a45;"/><path d="M30.312,47.307c-.112,.086-.186,.221-.201,.37-.015,.146,.045,.252,.097,.315,.088,.105,.222,.173,.36,.182,.211,.015,.461-.155,.483-.421,.029-.345-.193-.504-.391-.535-.124-.02-.248,.012-.348,.089Z" style="fill:#5a2a45;"/><path d="M32.071,46.827c-.112,.086-.186,.221-.201,.37-.015,.146,.045,.252,.097,.315,.088,.105,.222,.173,.36,.182,.211,.015,.461-.155,.483-.421,.029-.345-.193-.504-.391-.535-.124-.02-.248,.012-.348,.089Z" style="fill:#5a2a45;"/><path d="M33.83,46.347c-.112,.086-.186,.221-.201,.37-.015,.146,.045,.252,.097,.315,.088,.105,.222,.173,.36,.182,.211,.015,.461-.155,.483-.421,.029-.345-.193-.504-.391-.535-.124-.02-.248,.012-.348,.089Z" style="fill:#5a2a45;"/><path d="M35.589,45.868c-.112,.086-.186,.221-.201,.37-.015,.146,.045,.252,.097,.315,.088,.105,.222,.173,.36,.182,.211,.015,.461-.155,.483-.421,.029-.345-.193-.504-.391-.535-.124-.02-.248,.012-.348,.089Z" style="fill:#5a2a45;"/><path d="M37.347,45.388c-.112,.086-.186,.221-.201,.37-.015,.146,.045,.252,.097,.315,.088,.105,.222,.173,.36,.182,.211,.015,.461-.155,.483-.421,.029-.345-.193-.504-.391-.535-.124-.02-.248,.012-.348,.089Z" style="fill:#5a2a45;"/><path d="M39.106,44.909c-.112,.086-.186,.221-.201,.37-.015,.146,.045,.252,.097,.315,.088,.105,.222,.173,.36,.182,.211,.015,.461-.155,.483-.421,.029-.345-.193-.504-.391-.535-.124-.02-.248,.012-.348,.089Z" style="fill:#5a2a45;"/><path d="M40.865,44.429c-.112,.086-.186,.221-.201,.37-.015,.146,.045,.252,.097,.315,.088,.105,.222,.173,.36,.182,.211,.015,.461-.155,.483-.421,.029-.345-.193-.504-.391-.535-.124-.02-.248,.012-.348,.089Z" style="fill:#5a2a45;"/></g><g><path d="M47.007,57.283s7.951-10.55,8.763-10.726,12.857,.5,13.692,1.178,11.893,11.926,13.011,12.896,48.446,12.784,48.446,12.784l-3.48,19.065s-49.369-23.351-51.738-23.334c-2.368,.018-4.472-.199-6.366-1.167s-4.986-3.662-4.986-3.662l-3.855-2.89s.225,1.555-.277,2.589-1.006,.945-1.006,.945l-3.005-3.261s.029,.906-.788,1.37-1.331,.452-1.331,.452l-1.263-2.843-3.252-1.302s-.296,.394-1.457,.949-2.619-.54-2.619-.54l1.509-2.504Z" style="fill:#c0a685;"/><polygon points="45.816 62.415 68.523 39.547 70.438 41.205 47.589 64.151 44.13 65.939 43.984 65.803 45.816 62.415" style="fill:#431f34;"/><path d="M49.09,57.256c-.589,1.139-.303,2.086,1.029,2.631s5.136,1.617,7.545,2.366,6.801,1.419,6.801,1.419l.138-5.314s-4.151-.53-6.442-1.146-5.319-1.691-6.667-1.373-1.864,.374-2.404,1.418Z" style="fill:#c0a685;"/></g></g></g></g></g></g></svg>